<?xml version="1.0" encoding="UTF-8" standalone="no"?>
<svg width="37px" height="59px" viewBox="0 0 37 59" version="1.1" xmlns="http://www.w3.org/2000/svg" xmlns:xlink="http://www.w3.org/1999/xlink" xmlns:sketch="http://www.bohemiancoding.com/sketch/ns">
    <!-- Generator: Sketch 3.3.3 (12081) - http://www.bohemiancoding.com/sketch -->
    <title>Artboard 6</title>
    <desc>Created with Sketch.</desc>
    <defs></defs>
    <g id="Welcome" stroke="none" stroke-width="1" fill="none" fill-rule="evenodd" sketch:type="MSPage">
        <g id="Artboard-6" sketch:type="MSArtboardGroup" transform="translate(-14.000000, -2.000000)">
            <g id="projects-copy-2" sketch:type="MSLayerGroup" transform="translate(32.500000, 32.000000) scale(-1, 1) translate(-32.500000, -32.000000) translate(15.000000, 3.000000)">
                <path d="M26.9884301,30.5241771 C31.7234315,27.5522173 34.8491379,22.4368826 34.8491379,16.625 C34.8491379,7.44326603 27.0478927,0 17.424569,0 C7.80124525,0 0,7.44326603 0,16.625 C0,22.5434278 3.24135966,27.739535 8.1227314,30.6854558 L8.1227314,51 L26.9884301,51 L26.9884301,30.5241771 L26.9884301,30.5241771 Z" id="Oval-4" stroke="#48321F" stroke-width="2" sketch:type="MSShapeGroup"></path>
                <path d="M9,52.5 L26,52.5 L26,58 L9,58 L9,52.5 Z M9,47 L26,47 L26,52.5 L9,52.5 L9,47 Z" id="Rectangle-8" fill="#48321F" sketch:type="MSShapeGroup"></path>
                <rect id="Rectangle-8-Copy-4" fill="#48321F" sketch:type="MSShapeGroup" x="8" y="35.9047619" width="19.1052632" height="5.52380952"></rect>
            </g>
        </g>
    </g>
</svg>